<svg xmlns="http://www.w3.org/2000/svg" width="760" height="140" viewBox="0 0 760 140">
  <style>
    .card   { fill: #0d1117; stroke: #30363d; stroke-width: 1; }
    .head   { font: bold 14px -apple-system, BlinkMacSystemFont, 'Segoe UI', Helvetica, Arial, sans-serif, 'Apple Color Emoji', 'Segoe UI Emoji'; fill: #58a6ff; }
    .tyear  { font: bold 10px -apple-system, BlinkMacSystemFont, 'Segoe UI', Helvetica, Arial, sans-serif, 'Apple Color Emoji', 'Segoe UI Emoji'; fill: #484f58; }
    .tcount { font: bold 11px -apple-system, BlinkMacSystemFont, 'Segoe UI', Helvetica, Arial, sans-serif, 'Apple Color Emoji', 'Segoe UI Emoji'; fill: #8b949e; }
    @media (prefers-color-scheme: light) {
      .card   { fill: #ffffff; stroke: #d0d7de; }
      .head   { fill: #0969da; }
      .tyear  { fill: #57606a; }
      .tcount { fill: #57606a; }
    }
  </style>
  <rect class="card" width="760" height="140" rx="8"/>
  <text class="head" x="30" y="25">Project Timeline</text>
  <line x1="60" y1="75" x2="720" y2="75" stroke="#30363d" stroke-width="1.5"/>
  <circle cx="60.0" cy="75" r="5.9" fill="#58a6ff" opacity="0.3"/>
  <circle cx="60.0" cy="75" r="3.6" fill="#58a6ff" opacity="0.6"/>
  <circle cx="60.0" cy="75" r="3.0" fill="#58a6ff"/>
  <text x="60.0" y="94.9" class="tyear" text-anchor="middle">1997</text>
  <text x="60.0" y="63.1" class="tcount" text-anchor="middle">1</text>
  <circle cx="128.3" cy="75" r="5.9" fill="#58a6ff" opacity="0.3"/>
  <circle cx="128.3" cy="75" r="3.6" fill="#58a6ff" opacity="0.6"/>
  <circle cx="128.3" cy="75" r="3.0" fill="#58a6ff"/>
  <text x="128.3" y="94.9" class="tyear" text-anchor="middle">2000</text>
  <text x="128.3" y="63.1" class="tcount" text-anchor="middle">1</text>
  <circle cx="151.0" cy="75" r="14.5" fill="#58a6ff" opacity="0.3"/>
  <circle cx="151.0" cy="75" r="8.7" fill="#58a6ff" opacity="0.6"/>
  <circle cx="151.0" cy="75" r="4.3" fill="#58a6ff"/>
  <text x="151.0" y="103.5" class="tyear" text-anchor="middle">2001</text>
  <text x="151.0" y="54.5" class="tcount" text-anchor="middle">10</text>
  <circle cx="173.8" cy="75" r="9.7" fill="#58a6ff" opacity="0.3"/>
  <circle cx="173.8" cy="75" r="5.8" fill="#58a6ff" opacity="0.6"/>
  <circle cx="173.8" cy="75" r="3.0" fill="#58a6ff"/>
  <text x="173.8" y="98.7" class="tyear" text-anchor="middle">2002</text>
  <text x="173.8" y="59.3" class="tcount" text-anchor="middle">5</text>
  <circle cx="196.6" cy="75" r="6.9" fill="#58a6ff" opacity="0.3"/>
  <circle cx="196.6" cy="75" r="4.1" fill="#58a6ff" opacity="0.6"/>
  <circle cx="196.6" cy="75" r="3.0" fill="#58a6ff"/>
  <text x="196.6" y="95.9" class="tyear" text-anchor="middle">2003</text>
  <text x="196.6" y="62.1" class="tcount" text-anchor="middle">2</text>
  <circle cx="219.3" cy="75" r="11.6" fill="#58a6ff" opacity="0.3"/>
  <circle cx="219.3" cy="75" r="7.0" fill="#58a6ff" opacity="0.6"/>
  <circle cx="219.3" cy="75" r="3.5" fill="#58a6ff"/>
  <text x="219.3" y="100.6" class="tyear" text-anchor="middle">2004</text>
  <text x="219.3" y="57.4" class="tcount" text-anchor="middle">7</text>
  <circle cx="242.1" cy="75" r="20.2" fill="#58a6ff" opacity="0.3"/>
  <circle cx="242.1" cy="75" r="12.1" fill="#58a6ff" opacity="0.6"/>
  <circle cx="242.1" cy="75" r="6.0" fill="#58a6ff"/>
  <text x="242.1" y="109.2" class="tyear" text-anchor="middle">2005</text>
  <text x="242.1" y="48.8" class="tcount" text-anchor="middle">16</text>
  <circle cx="264.8" cy="75" r="11.6" fill="#58a6ff" opacity="0.3"/>
  <circle cx="264.8" cy="75" r="7.0" fill="#58a6ff" opacity="0.6"/>
  <circle cx="264.8" cy="75" r="3.5" fill="#58a6ff"/>
  <text x="264.8" y="100.6" class="tyear" text-anchor="middle">2006</text>
  <text x="264.8" y="57.4" class="tcount" text-anchor="middle">7</text>
  <circle cx="287.6" cy="75" r="6.9" fill="#58a6ff" opacity="0.3"/>
  <circle cx="287.6" cy="75" r="4.1" fill="#58a6ff" opacity="0.6"/>
  <circle cx="287.6" cy="75" r="3.0" fill="#58a6ff"/>
  <text x="287.6" y="95.9" class="tyear" text-anchor="middle">2007</text>
  <text x="287.6" y="62.1" class="tcount" text-anchor="middle">2</text>
  <circle cx="310.3" cy="75" r="5.9" fill="#58a6ff" opacity="0.3"/>
  <circle cx="310.3" cy="75" r="3.6" fill="#58a6ff" opacity="0.6"/>
  <circle cx="310.3" cy="75" r="3.0" fill="#58a6ff"/>
  <text x="310.3" y="94.9" class="tyear" text-anchor="middle">2008</text>
  <text x="310.3" y="63.1" class="tcount" text-anchor="middle">1</text>
  <circle cx="333.1" cy="75" r="20.2" fill="#58a6ff" opacity="0.3"/>
  <circle cx="333.1" cy="75" r="12.1" fill="#58a6ff" opacity="0.6"/>
  <circle cx="333.1" cy="75" r="6.0" fill="#58a6ff"/>
  <text x="333.1" y="109.2" class="tyear" text-anchor="middle">2009</text>
  <text x="333.1" y="48.8" class="tcount" text-anchor="middle">16</text>
  <circle cx="355.9" cy="75" r="8.8" fill="#58a6ff" opacity="0.3"/>
  <circle cx="355.9" cy="75" r="5.3" fill="#58a6ff" opacity="0.6"/>
  <circle cx="355.9" cy="75" r="3.0" fill="#58a6ff"/>
  <text x="355.9" y="97.8" class="tyear" text-anchor="middle">2010</text>
  <text x="355.9" y="60.2" class="tcount" text-anchor="middle">4</text>
  <circle cx="378.6" cy="75" r="14.5" fill="#58a6ff" opacity="0.3"/>
  <circle cx="378.6" cy="75" r="8.7" fill="#58a6ff" opacity="0.6"/>
  <circle cx="378.6" cy="75" r="4.3" fill="#58a6ff"/>
  <text x="378.6" y="103.5" class="tyear" text-anchor="middle">2011</text>
  <text x="378.6" y="54.5" class="tcount" text-anchor="middle">10</text>
  <circle cx="401.4" cy="75" r="5.9" fill="#58a6ff" opacity="0.3"/>
  <circle cx="401.4" cy="75" r="3.6" fill="#58a6ff" opacity="0.6"/>
  <circle cx="401.4" cy="75" r="3.0" fill="#58a6ff"/>
  <text x="401.4" y="94.9" class="tyear" text-anchor="middle">2012</text>
  <text x="401.4" y="63.1" class="tcount" text-anchor="middle">1</text>
  <circle cx="424.1" cy="75" r="11.6" fill="#58a6ff" opacity="0.3"/>
  <circle cx="424.1" cy="75" r="7.0" fill="#58a6ff" opacity="0.6"/>
  <circle cx="424.1" cy="75" r="3.5" fill="#58a6ff"/>
  <text x="424.1" y="100.6" class="tyear" text-anchor="middle">2013</text>
  <text x="424.1" y="57.4" class="tcount" text-anchor="middle">7</text>
  <circle cx="446.9" cy="75" r="23.0" fill="#58a6ff" opacity="0.3"/>
  <circle cx="446.9" cy="75" r="13.8" fill="#58a6ff" opacity="0.6"/>
  <circle cx="446.9" cy="75" r="6.9" fill="#58a6ff"/>
  <text x="446.9" y="112.0" class="tyear" text-anchor="middle">2014</text>
  <text x="446.9" y="46.0" class="tcount" text-anchor="middle">19</text>
  <circle cx="469.7" cy="75" r="18.3" fill="#58a6ff" opacity="0.3"/>
  <circle cx="469.7" cy="75" r="11.0" fill="#58a6ff" opacity="0.6"/>
  <circle cx="469.7" cy="75" r="5.5" fill="#58a6ff"/>
  <text x="469.7" y="107.3" class="tyear" text-anchor="middle">2015</text>
  <text x="469.7" y="50.7" class="tcount" text-anchor="middle">14</text>
  <circle cx="492.4" cy="75" r="6.9" fill="#58a6ff" opacity="0.3"/>
  <circle cx="492.4" cy="75" r="4.1" fill="#58a6ff" opacity="0.6"/>
  <circle cx="492.4" cy="75" r="3.0" fill="#58a6ff"/>
  <text x="492.4" y="95.9" class="tyear" text-anchor="middle">2016</text>
  <text x="492.4" y="62.1" class="tcount" text-anchor="middle">2</text>
  <circle cx="537.9" cy="75" r="9.7" fill="#58a6ff" opacity="0.3"/>
  <circle cx="537.9" cy="75" r="5.8" fill="#58a6ff" opacity="0.6"/>
  <circle cx="537.9" cy="75" r="3.0" fill="#58a6ff"/>
  <text x="537.9" y="98.7" class="tyear" text-anchor="middle">2018</text>
  <text x="537.9" y="59.3" class="tcount" text-anchor="middle">5</text>
  <circle cx="560.7" cy="75" r="8.8" fill="#58a6ff" opacity="0.3"/>
  <circle cx="560.7" cy="75" r="5.3" fill="#58a6ff" opacity="0.6"/>
  <circle cx="560.7" cy="75" r="3.0" fill="#58a6ff"/>
  <text x="560.7" y="97.8" class="tyear" text-anchor="middle">2019</text>
  <text x="560.7" y="60.2" class="tcount" text-anchor="middle">4</text>
  <circle cx="583.4" cy="75" r="12.6" fill="#58a6ff" opacity="0.3"/>
  <circle cx="583.4" cy="75" r="7.5" fill="#58a6ff" opacity="0.6"/>
  <circle cx="583.4" cy="75" r="3.8" fill="#58a6ff"/>
  <text x="583.4" y="101.6" class="tyear" text-anchor="middle">2020</text>
  <text x="583.4" y="56.4" class="tcount" text-anchor="middle">8</text>
  <circle cx="606.2" cy="75" r="7.8" fill="#58a6ff" opacity="0.3"/>
  <circle cx="606.2" cy="75" r="4.7" fill="#58a6ff" opacity="0.6"/>
  <circle cx="606.2" cy="75" r="3.0" fill="#58a6ff"/>
  <text x="606.2" y="96.8" class="tyear" text-anchor="middle">2021</text>
  <text x="606.2" y="61.2" class="tcount" text-anchor="middle">3</text>
  <circle cx="629.0" cy="75" r="18.3" fill="#58a6ff" opacity="0.3"/>
  <circle cx="629.0" cy="75" r="11.0" fill="#58a6ff" opacity="0.6"/>
  <circle cx="629.0" cy="75" r="5.5" fill="#58a6ff"/>
  <text x="629.0" y="107.3" class="tyear" text-anchor="middle">2022</text>
  <text x="629.0" y="50.7" class="tcount" text-anchor="middle">14</text>
  <circle cx="651.7" cy="75" r="19.2" fill="#58a6ff" opacity="0.3"/>
  <circle cx="651.7" cy="75" r="11.5" fill="#58a6ff" opacity="0.6"/>
  <circle cx="651.7" cy="75" r="5.8" fill="#58a6ff"/>
  <text x="651.7" y="108.2" class="tyear" text-anchor="middle">2023</text>
  <text x="651.7" y="49.8" class="tcount" text-anchor="middle">15</text>
  <circle cx="674.5" cy="75" r="8.8" fill="#58a6ff" opacity="0.3"/>
  <circle cx="674.5" cy="75" r="5.3" fill="#58a6ff" opacity="0.6"/>
  <circle cx="674.5" cy="75" r="3.0" fill="#58a6ff"/>
  <text x="674.5" y="97.8" class="tyear" text-anchor="middle">2024</text>
  <text x="674.5" y="60.2" class="tcount" text-anchor="middle">4</text>
  <circle cx="697.2" cy="75" r="9.7" fill="#58a6ff" opacity="0.3"/>
  <circle cx="697.2" cy="75" r="5.8" fill="#58a6ff" opacity="0.6"/>
  <circle cx="697.2" cy="75" r="3.0" fill="#58a6ff"/>
  <text x="697.2" y="98.7" class="tyear" text-anchor="middle">2025</text>
  <text x="697.2" y="59.3" class="tcount" text-anchor="middle">5</text>
  <circle cx="720.0" cy="75" r="10.7" fill="#58a6ff" opacity="0.3"/>
  <circle cx="720.0" cy="75" r="6.4" fill="#58a6ff" opacity="0.6"/>
  <circle cx="720.0" cy="75" r="3.2" fill="#58a6ff"/>
  <text x="720.0" y="99.7" class="tyear" text-anchor="middle">2026</text>
  <text x="720.0" y="58.3" class="tcount" text-anchor="middle">6</text>

</svg>